<?xml version="1.0" encoding="UTF-8"?>
<svg id="Layer_1" data-name="Layer 1" xmlns="http://www.w3.org/2000/svg" viewBox="0 0 265.91 32.13">
  <defs>
    <style>
      .cls-1 {
        fill: #3a53a4;
      }

      .cls-1, .cls-2 {
        stroke-width: 0px;
      }

      .cls-2 {
        fill: #1a9dcf;
      }
    </style>
  </defs>
  <path class="cls-2" d="m0,16.07c0-2.45.41-4.66,1.23-6.65s1.97-3.68,3.43-5.07c1.47-1.4,3.21-2.47,5.23-3.22,2.01-.75,4.22-1.12,6.61-1.12s4.59.37,6.61,1.12c2.01.75,3.76,1.82,5.23,3.22,1.47,1.4,2.61,3.09,3.43,5.07s1.23,4.2,1.23,6.65-.41,4.66-1.23,6.65c-.82,1.99-1.96,3.68-3.43,5.07-1.47,1.4-3.21,2.47-5.23,3.22-2.02.75-4.22,1.12-6.61,1.12s-4.59-.37-6.61-1.12c-2.02-.75-3.76-1.82-5.23-3.22-1.47-1.4-2.61-3.09-3.43-5.07-.82-1.99-1.23-4.2-1.23-6.65Zm7,0c0,1.44.22,2.76.67,3.95.45,1.19,1.09,2.23,1.92,3.11.83.88,1.84,1.56,3,2.05,1.17.49,2.47.73,3.91.73s2.74-.24,3.91-.73c1.17-.49,2.17-1.17,3-2.05.83-.88,1.47-1.91,1.92-3.11.45-1.19.67-2.51.67-3.95s-.22-2.72-.67-3.93c-.45-1.21-1.09-2.25-1.92-3.13-.84-.88-1.84-1.56-3-2.05-1.17-.49-2.47-.73-3.91-.73s-2.74.24-3.91.73c-1.17.49-2.17,1.17-3,2.05-.84.88-1.48,1.92-1.92,3.13-.45,1.21-.67,2.52-.67,3.93Z"/>
  <path class="cls-2" d="m52.69,8.25c-.55-.69-1.29-1.2-2.22-1.53-.94-.33-1.82-.5-2.66-.5-.49,0-.99.06-1.51.17-.52.12-1.01.3-1.47.54-.46.24-.84.57-1.12.97-.29.4-.43.89-.43,1.47,0,.92.35,1.63,1.04,2.12.69.49,1.56.91,2.61,1.25,1.05.35,2.18.69,3.39,1.04,1.21.35,2.34.84,3.39,1.47,1.05.63,1.92,1.48,2.61,2.55.69,1.07,1.04,2.49,1.04,4.28s-.32,3.18-.95,4.45c-.63,1.27-1.49,2.32-2.57,3.15-1.08.84-2.33,1.45-3.76,1.86-1.42.4-2.93.6-4.51.6-1.99,0-3.83-.3-5.53-.91-1.7-.6-3.28-1.58-4.75-2.94l4.79-5.27c.69.92,1.56,1.63,2.61,2.14,1.05.5,2.14.76,3.26.76.55,0,1.1-.06,1.66-.19.56-.13,1.06-.32,1.51-.58.45-.26.81-.59,1.08-.99.27-.4.41-.88.41-1.43,0-.92-.35-1.65-1.06-2.18-.71-.53-1.59-.99-2.66-1.36-1.07-.37-2.22-.75-3.45-1.12-1.24-.37-2.39-.88-3.45-1.51-1.07-.63-1.95-1.47-2.66-2.5-.71-1.04-1.06-2.4-1.06-4.1s.32-3.08.97-4.32c.65-1.24,1.51-2.27,2.59-3.11,1.08-.83,2.32-1.46,3.74-1.88,1.41-.42,2.86-.63,4.36-.63,1.73,0,3.4.24,5.01.73,1.61.49,3.07,1.31,4.36,2.46l-4.62,5.05Z"/>
  <path class="cls-2" d="m72.42.78h5.57l13.3,30.58h-7.6l-2.63-6.48h-11.88l-2.55,6.48h-7.43L72.42.78Zm2.59,8.9l-3.71,9.5h7.47l-3.76-9.5Z"/>
  <path class="cls-1" d="m127.14,8.72c-.66-.81-1.48-1.43-2.44-1.86-.96-.43-2.08-.65-3.35-.65s-2.44.24-3.52.73c-1.08.49-2.02,1.17-2.81,2.05-.79.88-1.41,1.92-1.86,3.13-.45,1.21-.67,2.52-.67,3.93s.22,2.76.67,3.95c.45,1.19,1.06,2.23,1.84,3.11.78.88,1.69,1.56,2.74,2.05,1.05.49,2.18.73,3.39.73,1.38,0,2.61-.29,3.67-.86,1.06-.58,1.94-1.38,2.63-2.42l5.61,4.19c-1.3,1.81-2.94,3.15-4.92,4.02s-4.03,1.3-6.13,1.3c-2.39,0-4.59-.37-6.61-1.12-2.02-.75-3.76-1.82-5.23-3.22-1.47-1.4-2.61-3.09-3.43-5.07-.82-1.99-1.23-4.2-1.23-6.65s.41-4.66,1.23-6.65c.82-1.99,1.97-3.68,3.43-5.07,1.47-1.4,3.21-2.47,5.23-3.22,2.01-.75,4.22-1.12,6.61-1.12.86,0,1.76.08,2.7.24.94.16,1.86.41,2.76.76.91.35,1.78.81,2.61,1.38.83.58,1.58,1.28,2.25,2.12l-5.18,4.23Z"/>
  <path class="cls-1" d="m135.09,16.07c0-2.45.41-4.66,1.23-6.65s1.97-3.68,3.43-5.07c1.47-1.4,3.21-2.47,5.23-3.22,2.01-.75,4.22-1.12,6.61-1.12s4.59.37,6.61,1.12c2.01.75,3.76,1.82,5.23,3.22,1.47,1.4,2.61,3.09,3.43,5.07s1.23,4.2,1.23,6.65-.41,4.66-1.23,6.65c-.82,1.99-1.96,3.68-3.43,5.07-1.47,1.4-3.21,2.47-5.23,3.22-2.02.75-4.22,1.12-6.61,1.12s-4.59-.37-6.61-1.12c-2.02-.75-3.76-1.82-5.23-3.22-1.47-1.4-2.61-3.09-3.43-5.07-.82-1.99-1.23-4.2-1.23-6.65Zm7,0c0,1.44.22,2.76.67,3.95.45,1.19,1.09,2.23,1.92,3.11.83.88,1.84,1.56,3,2.05,1.17.49,2.47.73,3.91.73s2.74-.24,3.91-.73c1.17-.49,2.17-1.17,3-2.05.83-.88,1.47-1.91,1.92-3.11.45-1.19.67-2.51.67-3.95s-.22-2.72-.67-3.93c-.45-1.21-1.09-2.25-1.92-3.13-.84-.88-1.84-1.56-3-2.05-1.17-.49-2.47-.73-3.91-.73s-2.74.24-3.91.73c-1.17.49-2.17,1.17-3,2.05-.84.88-1.48,1.92-1.92,3.13-.45,1.21-.67,2.52-.67,3.93Z"/>
  <path class="cls-1" d="m172.66.78h9.16l13,21.25h.09V.78h6.74v30.58h-8.81l-13.34-21.77h-.09v21.77h-6.74V.78Z"/>
  <path class="cls-1" d="m219.64,24.75l11.88-10.67c.6-.55,1.21-1.17,1.81-1.86.6-.69.91-1.5.91-2.42,0-1.04-.37-1.85-1.12-2.44-.75-.59-1.63-.89-2.63-.89-1.21,0-2.15.37-2.83,1.12-.68.75-1.06,1.67-1.14,2.76l-6.48-.48c.09-1.58.42-2.96.99-4.12.58-1.17,1.34-2.14,2.29-2.92.95-.78,2.07-1.36,3.35-1.75,1.28-.39,2.67-.58,4.17-.58,1.38,0,2.68.19,3.89.58s2.26.96,3.15,1.73c.89.76,1.59,1.72,2.09,2.87.5,1.15.76,2.49.76,4.02,0,.98-.1,1.86-.3,2.66-.2.79-.48,1.51-.84,2.16-.36.65-.78,1.25-1.27,1.79-.49.55-1.02,1.08-1.6,1.6l-9.28,7.99h13.56v5.7h-21.33v-6.87Z"/>
  <path class="cls-1" d="m252.31,8.69h-5.33c.28-2.15,1.05-3.88,2.32-5.19,1.77-1.82,3.99-2.73,6.67-2.73,2.39,0,4.39.76,6.01,2.28,1.62,1.52,2.43,3.32,2.43,5.4,0,1.29-.35,2.47-1.06,3.54s-1.73,1.93-3.08,2.59c1.77.53,3.15,1.45,4.15,2.76,1,1.31,1.49,2.86,1.49,4.64,0,2.61-.96,4.83-2.89,6.64-1.93,1.81-4.38,2.72-7.36,2.72-2.82,0-5.13-.85-6.91-2.56-1.78-1.71-2.76-4.04-2.93-6.98h5.48c.24,1.5.76,2.62,1.57,3.36s1.84,1.1,3.08,1.1,2.37-.42,3.22-1.25c.85-.83,1.28-1.85,1.28-3.05,0-1.32-.57-2.43-1.72-3.35s-2.8-1.38-4.97-1.41v-4.75c1.33-.11,2.33-.31,2.98-.62.65-.31,1.16-.74,1.52-1.28s.54-1.12.54-1.72c0-.79-.28-1.45-.83-1.97s-1.28-.78-2.18-.78c-.79,0-1.51.24-2.16.72-.65.48-1.09,1.11-1.33,1.87Z"/>
</svg>