<?xml version="1.0" encoding="UTF-8"?>
<svg id="Layer_1" data-name="Layer 1" xmlns="http://www.w3.org/2000/svg" viewBox="0 0 1650.53 199.03">
  <defs>
    <style>
      .cls-1 {
        fill: #3a53a4;
      }

      .cls-1, .cls-2 {
        stroke-width: 0px;
      }

      .cls-2 {
        fill: #1a9dcf;
      }
    </style>
  </defs>
  <path class="cls-2" d="m0,99.52c0-15.16,2.54-28.89,7.62-41.2s12.17-22.78,21.27-31.43c9.09-8.65,19.88-15.29,32.37-19.93C73.74,2.32,87.38,0,102.19,0s28.44,2.32,40.93,6.96c12.48,4.64,23.27,11.28,32.37,19.93,9.1,8.65,16.18,19.13,21.27,31.43s7.62,26.04,7.62,41.2-2.54,28.89-7.62,41.2-12.17,22.79-21.27,31.43c-9.1,8.65-19.89,15.29-32.37,19.93-12.49,4.63-26.13,6.96-40.93,6.96s-28.45-2.32-40.93-6.96c-12.49-4.64-23.27-11.28-32.37-19.93-9.1-8.65-16.18-19.13-21.27-31.43S0,114.68,0,99.52Zm43.34,0c0,8.92,1.38,17.08,4.15,24.48,2.76,7.4,6.73,13.82,11.9,19.26,5.17,5.44,11.37,9.68,18.59,12.71,7.22,3.03,15.29,4.55,24.21,4.55s16.99-1.51,24.21-4.55c7.22-3.03,13.42-7.27,18.59-12.71,5.17-5.44,9.14-11.86,11.9-19.26,2.76-7.4,4.15-15.56,4.15-24.48s-1.38-16.85-4.15-24.34c-2.77-7.49-6.73-13.95-11.9-19.4-5.17-5.44-11.37-9.67-18.59-12.71-7.22-3.03-15.29-4.55-24.21-4.55s-16.99,1.52-24.21,4.55c-7.22,3.03-13.42,7.27-18.59,12.71-5.17,5.44-9.14,11.9-11.9,19.4-2.77,7.49-4.15,15.61-4.15,24.34Z"/>
  <path class="cls-2" d="m326.36,51.1c-3.39-4.28-7.98-7.45-13.78-9.5-5.8-2.05-11.28-3.08-16.45-3.08-3.03,0-6.15.36-9.36,1.07-3.21.71-6.25,1.83-9.1,3.34-2.85,1.52-5.17,3.52-6.96,6.02-1.79,2.5-2.68,5.53-2.68,9.1,0,5.71,2.14,10.08,6.42,13.11,4.28,3.03,9.67,5.62,16.18,7.76,6.51,2.14,13.51,4.28,21,6.42,7.49,2.14,14.49,5.17,21,9.1,6.51,3.92,11.9,9.19,16.18,15.78,4.28,6.6,6.42,15.43,6.42,26.48s-1.96,19.71-5.89,27.55c-3.92,7.85-9.23,14.36-15.92,19.53-6.69,5.17-14.45,9.01-23.27,11.5-8.83,2.5-18.15,3.75-27.96,3.75-12.31,0-23.72-1.87-34.24-5.62-10.52-3.75-20.33-9.81-29.43-18.19l29.69-32.64c4.28,5.71,9.67,10.12,16.18,13.24,6.51,3.12,13.24,4.68,20.2,4.68,3.39,0,6.82-.4,10.3-1.2,3.48-.8,6.6-2.01,9.36-3.61,2.76-1.61,4.99-3.65,6.69-6.15,1.69-2.5,2.54-5.44,2.54-8.83,0-5.71-2.19-10.21-6.55-13.51-4.37-3.3-9.86-6.11-16.45-8.43-6.6-2.32-13.74-4.64-21.4-6.96-7.67-2.32-14.8-5.44-21.4-9.36-6.6-3.92-12.08-9.1-16.45-15.52-4.37-6.42-6.55-14.89-6.55-25.41s2.01-19.08,6.02-26.75c4.01-7.67,9.36-14.09,16.05-19.26,6.69-5.17,14.4-9.05,23.14-11.64,8.74-2.58,17.74-3.88,27.02-3.88,10.7,0,21.04,1.52,31.03,4.55,9.99,3.04,18.99,8.12,27.02,15.25l-28.62,31.3Z"/>
  <path class="cls-2" d="m448.61,4.82h34.51l82.39,189.4h-47.08l-16.32-40.13h-73.57l-15.78,40.13h-46.01L448.61,4.82Zm16.05,55.11l-23.01,58.85h46.28l-23.27-58.85Z"/>
  <path class="cls-1" d="m787.55,54.04c-4.1-4.99-9.14-8.83-15.11-11.5-5.98-2.68-12.89-4.01-20.73-4.01s-15.11,1.52-21.8,4.55c-6.69,3.03-12.49,7.27-17.39,12.71-4.91,5.44-8.74,11.9-11.5,19.4-2.77,7.49-4.15,15.61-4.15,24.34s1.38,17.08,4.15,24.48c2.76,7.4,6.55,13.82,11.37,19.26,4.82,5.44,10.47,9.68,16.99,12.71,6.51,3.03,13.51,4.55,21,4.55,8.56,0,16.14-1.78,22.74-5.35,6.6-3.57,12.04-8.56,16.32-14.98l34.78,25.95c-8.03,11.24-18.19,19.53-30.5,24.88-12.31,5.35-24.97,8.03-37.99,8.03-14.8,0-28.45-2.32-40.93-6.96-12.49-4.64-23.27-11.28-32.37-19.93-9.1-8.65-16.18-19.13-21.27-31.43s-7.62-26.04-7.62-41.2,2.54-28.89,7.62-41.2,12.17-22.78,21.27-31.43c9.09-8.65,19.88-15.29,32.37-19.93,12.48-4.63,26.12-6.96,40.93-6.96,5.35,0,10.92.49,16.72,1.47,5.79.98,11.5,2.54,17.12,4.68,5.62,2.14,11.01,5,16.18,8.56,5.17,3.57,9.81,7.94,13.91,13.11l-32.1,26.22Z"/>
  <path class="cls-1" d="m836.77,99.52c0-15.16,2.54-28.89,7.62-41.2s12.17-22.78,21.27-31.43c9.09-8.65,19.88-15.29,32.37-19.93,12.48-4.63,26.12-6.96,40.93-6.96s28.44,2.32,40.93,6.96c12.48,4.64,23.27,11.28,32.37,19.93,9.1,8.65,16.18,19.13,21.27,31.43s7.62,26.04,7.62,41.2-2.54,28.89-7.62,41.2-12.17,22.79-21.27,31.43c-9.1,8.65-19.89,15.29-32.37,19.93-12.49,4.63-26.13,6.96-40.93,6.96s-28.45-2.32-40.93-6.96c-12.48-4.64-23.27-11.28-32.37-19.93-9.1-8.65-16.18-19.13-21.27-31.43s-7.62-26.04-7.62-41.2Zm43.34,0c0,8.92,1.38,17.08,4.15,24.48,2.76,7.4,6.73,13.82,11.9,19.26,5.17,5.44,11.37,9.68,18.59,12.71,7.22,3.03,15.29,4.55,24.21,4.55s16.99-1.51,24.21-4.55c7.22-3.03,13.42-7.27,18.59-12.71,5.17-5.44,9.14-11.86,11.9-19.26,2.76-7.4,4.15-15.56,4.15-24.48s-1.38-16.85-4.15-24.34c-2.77-7.49-6.73-13.95-11.9-19.4-5.17-5.44-11.37-9.67-18.59-12.71-7.22-3.03-15.29-4.55-24.21-4.55s-16.99,1.52-24.21,4.55c-7.22,3.03-13.42,7.27-18.59,12.71-5.17,5.44-9.14,11.9-11.9,19.4-2.77,7.49-4.15,15.61-4.15,24.34Z"/>
  <path class="cls-1" d="m1069.5,4.82h56.71l80.52,131.62h.54V4.82h41.73v189.4h-54.57l-82.66-134.83h-.54v134.83h-41.73V4.82Z"/>
  <path class="cls-1" d="m1360.55,151.68l73.57-66.08c3.75-3.39,7.49-7.22,11.24-11.5s5.62-9.27,5.62-14.98c0-6.42-2.32-11.46-6.96-15.12-4.64-3.65-10.08-5.48-16.32-5.48-7.49,0-13.33,2.32-17.52,6.96-4.19,4.64-6.55,10.34-7.09,17.12l-40.13-2.94c.54-9.81,2.58-18.32,6.15-25.55,3.57-7.22,8.29-13.24,14.18-18.06,5.89-4.82,12.79-8.43,20.73-10.83,7.93-2.41,16.54-3.61,25.82-3.61,8.56,0,16.58,1.2,24.08,3.61,7.49,2.41,14,5.98,19.53,10.7,5.53,4.73,9.85,10.66,12.97,17.79,3.12,7.13,4.68,15.43,4.68,24.88,0,6.06-.63,11.55-1.87,16.45-1.25,4.91-2.99,9.36-5.22,13.38-2.23,4.01-4.86,7.72-7.89,11.1-3.03,3.39-6.33,6.69-9.9,9.9l-57.51,49.49h84v35.31h-132.15v-42.53Z"/>
  <path class="cls-1" d="m1563.59,79.45h13.11c3.75,0,7.4-.27,10.97-.8,3.57-.54,6.82-1.56,9.76-3.08,2.94-1.51,5.3-3.65,7.09-6.42,1.78-2.76,2.68-6.37,2.68-10.83,0-5.71-2.27-10.43-6.82-14.18-4.55-3.75-10.12-5.62-16.72-5.62-6.25,0-11.42,1.7-15.52,5.08-4.11,3.39-6.78,7.58-8.03,12.57l-44.14-9.09c2.14-8.2,5.35-15.2,9.63-21,4.28-5.79,9.36-10.47,15.25-14.04,5.89-3.57,12.44-6.19,19.66-7.89,7.22-1.69,14.85-2.54,22.87-2.54s16.45,1.03,24.21,3.08c7.76,2.05,14.58,5.26,20.46,9.63,5.88,4.37,10.57,9.86,14.04,16.45,3.48,6.6,5.22,14.45,5.22,23.54,0,10.52-2.77,19.53-8.29,27.02-5.53,7.49-13.56,12.31-24.08,14.45v.8c5.71.71,10.74,2.41,15.11,5.08,4.37,2.67,8.07,5.98,11.1,9.9,3.03,3.92,5.35,8.38,6.96,13.38,1.6,5,2.41,10.26,2.41,15.78,0,9.46-1.83,17.75-5.48,24.88-3.66,7.13-8.56,13.07-14.71,17.79-6.15,4.73-13.38,8.25-21.67,10.57-8.29,2.32-17.08,3.48-26.35,3.48-16.95,0-31.52-3.92-43.74-11.77-12.22-7.85-20.29-20.24-24.21-37.18l42.27-9.9c1.43,6.78,4.32,12.13,8.69,16.05,4.37,3.92,10.83,5.88,19.39,5.88s15.2-2.27,19.4-6.82c4.19-4.55,6.29-10.39,6.29-17.52,0-5.35-1.12-9.5-3.34-12.44-2.23-2.94-5.13-5.12-8.69-6.55-3.57-1.42-7.58-2.27-12.04-2.54-4.46-.27-8.92-.4-13.38-.4h-9.36v-34.78Z"/>
</svg>