<svg xmlns="http://www.w3.org/2000/svg" width="513.521" height="61.752" viewBox="0 0 513.521 61.752">
  <g id="Group_94" data-name="Group 94" transform="translate(-5277.822 -1689.742)">
    <path id="Path_1" data-name="Path 1" d="M2.822-29.382A33.189,33.189,0,0,1,5.188-42.164a28.034,28.034,0,0,1,6.6-9.752A29.07,29.07,0,0,1,21.829-58.1a36.2,36.2,0,0,1,12.7-2.158,36.2,36.2,0,0,1,12.7,2.158A29.07,29.07,0,0,1,57.27-51.917a28.034,28.034,0,0,1,6.6,9.752,33.189,33.189,0,0,1,2.366,12.782A33.189,33.189,0,0,1,63.868-16.6a28.034,28.034,0,0,1-6.6,9.753A29.07,29.07,0,0,1,47.227-.664a36.2,36.2,0,0,1-12.7,2.158,36.2,36.2,0,0,1-12.7-2.158A29.07,29.07,0,0,1,11.786-6.848a28.034,28.034,0,0,1-6.6-9.753A33.189,33.189,0,0,1,2.822-29.382Zm13.446,0a21.553,21.553,0,0,0,1.287,7.595,17.4,17.4,0,0,0,3.694,5.976,16.858,16.858,0,0,0,5.768,3.943,19.231,19.231,0,0,0,7.511,1.411,19.231,19.231,0,0,0,7.512-1.411,16.858,16.858,0,0,0,5.768-3.943A17.4,17.4,0,0,0,51.5-21.787a21.553,21.553,0,0,0,1.286-7.595A21.65,21.65,0,0,0,51.5-36.935a17.317,17.317,0,0,0-3.694-6.018A16.858,16.858,0,0,0,42.04-46.9a19.231,19.231,0,0,0-7.512-1.411A19.231,19.231,0,0,0,27.017-46.9a16.858,16.858,0,0,0-5.768,3.943,17.317,17.317,0,0,0-3.694,6.018A21.65,21.65,0,0,0,16.268-29.382Zm87.814-15.023a9.221,9.221,0,0,0-4.275-2.946,15.319,15.319,0,0,0-5.1-.954,13.375,13.375,0,0,0-2.905.332,11.134,11.134,0,0,0-2.822,1.037,6.151,6.151,0,0,0-2.158,1.868,4.728,4.728,0,0,0-.83,2.822A4.678,4.678,0,0,0,87.98-38.18,18.863,18.863,0,0,0,93-35.773q3.029,1,6.515,1.992a26.846,26.846,0,0,1,6.516,2.822,15.425,15.425,0,0,1,5.021,4.9,14.926,14.926,0,0,1,1.992,8.217A18.892,18.892,0,0,1,111.22-9.3a17.348,17.348,0,0,1-4.938,6.059A21.015,21.015,0,0,1,99.061.332a31.726,31.726,0,0,1-8.674,1.162A31.465,31.465,0,0,1,79.763-.249a26.622,26.622,0,0,1-9.13-5.644l9.213-10.126a13.449,13.449,0,0,0,5.021,4.109,14.334,14.334,0,0,0,6.267,1.452,14.178,14.178,0,0,0,3.2-.373,10.409,10.409,0,0,0,2.9-1.12,6.265,6.265,0,0,0,2.075-1.909A4.76,4.76,0,0,0,100.1-16.6a4.969,4.969,0,0,0-2.034-4.191,18.742,18.742,0,0,0-5.1-2.615q-3.071-1.079-6.64-2.158a29.819,29.819,0,0,1-6.64-2.905,16,16,0,0,1-5.1-4.814,13.774,13.774,0,0,1-2.034-7.885,17.652,17.652,0,0,1,1.868-8.3,18.006,18.006,0,0,1,4.98-5.976,21.649,21.649,0,0,1,7.18-3.611,29.388,29.388,0,0,1,8.383-1.2,32.961,32.961,0,0,1,9.628,1.411,22.206,22.206,0,0,1,8.383,4.731Zm37.931-14.359H152.72L178.284,0H163.676l-5.063-12.45H135.788L130.891,0H116.615Zm4.98,17.1-7.138,18.26h14.359ZM424.96-13.2l22.825-20.5a42.911,42.911,0,0,0,3.486-3.569,6.839,6.839,0,0,0,1.743-4.648,5.643,5.643,0,0,0-2.158-4.689,7.937,7.937,0,0,0-5.063-1.7,6.954,6.954,0,0,0-5.436,2.158,8.7,8.7,0,0,0-2.2,5.312l-12.45-.913a20.254,20.254,0,0,1,1.909-7.927,16.656,16.656,0,0,1,4.4-5.6,18.522,18.522,0,0,1,6.432-3.361,27.473,27.473,0,0,1,8.009-1.121,24.273,24.273,0,0,1,7.47,1.121,17.4,17.4,0,0,1,6.059,3.32,15.1,15.1,0,0,1,4.026,5.519,19.116,19.116,0,0,1,1.452,7.719,20.712,20.712,0,0,1-.581,5.1,17.282,17.282,0,0,1-1.618,4.15,18.951,18.951,0,0,1-2.448,3.444,40.2,40.2,0,0,1-3.071,3.071L439.9-10.956h26.062V0h-41Zm68.89-24.568q1-.249,1.992-.415a12.608,12.608,0,0,1,2.075-.166,18.59,18.59,0,0,1,7.553,1.494,17.461,17.461,0,0,1,5.81,4.067,18.206,18.206,0,0,1,3.735,6.1,21.142,21.142,0,0,1,1.328,7.511,19.508,19.508,0,0,1-1.7,8.259,19.343,19.343,0,0,1-4.648,6.35,20.853,20.853,0,0,1-6.972,4.109A25.118,25.118,0,0,1,494.431,1,25.015,25.015,0,0,1,485.8-.456a20.937,20.937,0,0,1-6.93-4.109,19.343,19.343,0,0,1-4.648-6.35,19.508,19.508,0,0,1-1.7-8.259,26.619,26.619,0,0,1,.581-5.768,30.242,30.242,0,0,1,1.535-4.939,31.775,31.775,0,0,1,2.241-4.44q1.286-2.116,2.7-4.357l12.865-20.086h15.189Zm10.043,18.094a8.945,8.945,0,0,0-2.615-6.6,9.26,9.26,0,0,0-6.848-2.614,9.26,9.26,0,0,0-6.848,2.614,8.945,8.945,0,0,0-2.615,6.6,8.945,8.945,0,0,0,2.615,6.6,9.26,9.26,0,0,0,6.848,2.615,9.26,9.26,0,0,0,6.848-2.615A8.945,8.945,0,0,0,503.893-19.671Z" transform="translate(5275 1750)" fill="#169dcf"/>
    <path id="Path_2" data-name="Path 2" d="M247.174-43.492a12.7,12.7,0,0,0-4.689-3.569,15.6,15.6,0,0,0-6.432-1.245,16.19,16.19,0,0,0-6.765,1.411,16.185,16.185,0,0,0-5.395,3.943,18.375,18.375,0,0,0-3.569,6.018,21.65,21.65,0,0,0-1.286,7.553,21.553,21.553,0,0,0,1.286,7.595,18.874,18.874,0,0,0,3.527,5.976,15.987,15.987,0,0,0,5.27,3.943,15.241,15.241,0,0,0,6.516,1.411,14.6,14.6,0,0,0,7.055-1.66,14.041,14.041,0,0,0,5.063-4.648l10.79,8.051A22.469,22.469,0,0,1,249.083-1,29.277,29.277,0,0,1,237.3,1.494,36.2,36.2,0,0,1,224.6-.664a29.07,29.07,0,0,1-10.043-6.184,28.034,28.034,0,0,1-6.6-9.753,33.189,33.189,0,0,1-2.365-12.782,33.189,33.189,0,0,1,2.365-12.782,28.034,28.034,0,0,1,6.6-9.752A29.07,29.07,0,0,1,224.6-58.1a36.2,36.2,0,0,1,12.7-2.158,31.1,31.1,0,0,1,5.188.457,28.029,28.029,0,0,1,5.312,1.452,23.673,23.673,0,0,1,5.021,2.656,19.972,19.972,0,0,1,4.316,4.067Zm15.272,14.11a33.189,33.189,0,0,1,2.366-12.782,28.034,28.034,0,0,1,6.6-9.752A29.07,29.07,0,0,1,281.453-58.1a36.2,36.2,0,0,1,12.7-2.158,36.2,36.2,0,0,1,12.7,2.158,29.07,29.07,0,0,1,10.043,6.183,28.034,28.034,0,0,1,6.6,9.752,33.189,33.189,0,0,1,2.366,12.782A33.189,33.189,0,0,1,323.492-16.6a28.034,28.034,0,0,1-6.6,9.753A29.07,29.07,0,0,1,306.851-.664a36.2,36.2,0,0,1-12.7,2.158,36.2,36.2,0,0,1-12.7-2.158A29.07,29.07,0,0,1,271.41-6.848a28.034,28.034,0,0,1-6.6-9.753A33.189,33.189,0,0,1,262.446-29.382Zm13.446,0a21.553,21.553,0,0,0,1.286,7.595,17.4,17.4,0,0,0,3.694,5.976,16.858,16.858,0,0,0,5.768,3.943,19.231,19.231,0,0,0,7.511,1.411,19.231,19.231,0,0,0,7.512-1.411,16.858,16.858,0,0,0,5.769-3.943,17.4,17.4,0,0,0,3.693-5.976,21.553,21.553,0,0,0,1.286-7.595,21.65,21.65,0,0,0-1.286-7.553,17.318,17.318,0,0,0-3.693-6.018,16.858,16.858,0,0,0-5.769-3.943,19.231,19.231,0,0,0-7.512-1.411,19.231,19.231,0,0,0-7.511,1.411,16.858,16.858,0,0,0-5.768,3.943,17.317,17.317,0,0,0-3.694,6.018A21.65,21.65,0,0,0,275.892-29.382Zm58.764-29.382h17.6l24.983,40.836h.166V-58.764h12.948V0H373.417L347.77-41.832H347.6V0H334.656Z" transform="translate(5275 1750)" fill="#103adb"/>
  </g>
</svg>
