<?xml version="1.0" encoding="UTF-8"?>
<svg id="Layer_1" data-name="Layer 1" xmlns="http://www.w3.org/2000/svg" viewBox="0 0 273.37 58.99">
  <path d="M1.53,22.5c0-2.55.43-4.86,1.28-6.93.85-2.07,2.05-3.83,3.58-5.29,1.53-1.45,3.34-2.57,5.44-3.35,2.1-.78,4.39-1.17,6.89-1.17s4.78.39,6.88,1.17c2.1.78,3.92,1.9,5.44,3.35,1.53,1.46,2.72,3.22,3.58,5.29.85,2.07,1.28,4.38,1.28,6.93s-.43,4.86-1.28,6.93-2.05,3.83-3.58,5.29c-1.53,1.46-3.35,2.57-5.44,3.35-2.1.78-4.4,1.17-6.88,1.17s-4.79-.39-6.89-1.17c-2.1-.78-3.92-1.9-5.44-3.35-1.53-1.46-2.72-3.22-3.58-5.29s-1.28-4.38-1.28-6.93ZM8.82,22.5c0,1.5.23,2.87.7,4.12.46,1.25,1.13,2.33,2,3.24.87.92,1.91,1.63,3.13,2.14,1.21.51,2.57.77,4.07.77s2.86-.25,4.07-.77c1.21-.51,2.26-1.22,3.13-2.14.87-.92,1.54-2,2-3.24.46-1.24.7-2.62.7-4.12s-.23-2.83-.7-4.09c-.47-1.26-1.13-2.35-2-3.26-.87-.91-1.91-1.63-3.13-2.14-1.21-.51-2.57-.77-4.07-.77s-2.86.26-4.07.77c-1.21.51-2.26,1.22-3.13,2.14-.87.92-1.54,2-2,3.26-.47,1.26-.7,2.63-.7,4.09Z" style="fill: #1a9dcf; stroke-width: 0px;"/>
  <path d="M55.53,14.35c-.57-.72-1.34-1.25-2.32-1.6-.98-.34-1.9-.52-2.77-.52-.51,0-1.03.06-1.57.18-.54.12-1.05.31-1.53.56-.48.25-.87.59-1.17,1.01-.3.42-.45.93-.45,1.53,0,.96.36,1.69,1.08,2.2.72.51,1.63.95,2.72,1.31,1.09.36,2.27.72,3.53,1.08,1.26.36,2.44.87,3.53,1.53,1.09.66,2,1.55,2.72,2.66.72,1.11,1.08,2.6,1.08,4.46s-.33,3.31-.99,4.63c-.66,1.32-1.55,2.42-2.68,3.29s-2.43,1.52-3.92,1.94c-1.48.42-3.05.63-4.7.63-2.07,0-3.99-.31-5.76-.94-1.77-.63-3.42-1.65-4.95-3.06l5-5.49c.72.96,1.63,1.7,2.72,2.23,1.1.53,2.23.79,3.4.79.57,0,1.15-.07,1.73-.2.58-.13,1.11-.34,1.57-.61.46-.27.84-.61,1.12-1.04.29-.42.43-.91.43-1.48,0-.96-.37-1.72-1.1-2.27-.74-.55-1.66-1.03-2.77-1.42-1.11-.39-2.31-.78-3.6-1.17-1.29-.39-2.49-.92-3.6-1.58-1.11-.66-2.03-1.53-2.77-2.61-.74-1.08-1.1-2.5-1.1-4.27s.34-3.21,1.01-4.5c.68-1.29,1.58-2.37,2.7-3.24,1.12-.87,2.42-1.52,3.89-1.96,1.47-.43,2.98-.65,4.54-.65,1.8,0,3.54.26,5.22.77,1.68.51,3.2,1.37,4.55,2.56l-4.81,5.26Z" style="fill: #1a9dcf; stroke-width: 0px;"/>
  <path d="M75.19,6.57h5.8l13.86,31.86h-7.92l-2.75-6.75h-12.38l-2.66,6.75h-7.74l13.77-31.86ZM77.89,15.84l-3.87,9.9h7.78l-3.92-9.9Z" style="fill: #1a9dcf; stroke-width: 0px;"/>
  <path d="M130.41,14.85c-.69-.84-1.54-1.48-2.54-1.94-1.01-.45-2.17-.67-3.49-.67s-2.54.26-3.67.77c-1.12.51-2.1,1.22-2.92,2.14-.83.92-1.47,2-1.94,3.26-.47,1.26-.7,2.63-.7,4.09s.23,2.87.7,4.12c.46,1.25,1.1,2.33,1.91,3.24s1.76,1.63,2.86,2.14c1.09.51,2.27.77,3.53.77,1.44,0,2.71-.3,3.83-.9,1.11-.6,2.02-1.44,2.75-2.52l5.85,4.36c-1.35,1.89-3.06,3.29-5.13,4.19-2.07.9-4.2,1.35-6.39,1.35-2.49,0-4.79-.39-6.89-1.17-2.1-.78-3.92-1.9-5.44-3.35-1.53-1.46-2.72-3.22-3.58-5.29s-1.28-4.38-1.28-6.93.43-4.86,1.28-6.93c.85-2.07,2.05-3.83,3.58-5.29,1.53-1.45,3.34-2.57,5.44-3.35,2.1-.78,4.39-1.17,6.89-1.17.9,0,1.84.08,2.81.25.97.17,1.93.43,2.88.79.94.36,1.85.84,2.72,1.44s1.65,1.33,2.34,2.2l-5.4,4.41Z" style="fill: #3a53a4; stroke-width: 0px;"/>
  <path d="M137.79,22.5c0-2.55.43-4.86,1.28-6.93.85-2.07,2.05-3.83,3.58-5.29,1.53-1.45,3.34-2.57,5.44-3.35,2.1-.78,4.39-1.17,6.89-1.17s4.78.39,6.88,1.17c2.1.78,3.92,1.9,5.44,3.35,1.53,1.46,2.72,3.22,3.58,5.29.85,2.07,1.28,4.38,1.28,6.93s-.43,4.86-1.28,6.93-2.05,3.83-3.58,5.29c-1.53,1.46-3.35,2.57-5.44,3.35-2.1.78-4.4,1.17-6.88,1.17s-4.79-.39-6.89-1.17c-2.1-.78-3.92-1.9-5.44-3.35-1.53-1.46-2.72-3.22-3.58-5.29s-1.28-4.38-1.28-6.93ZM145.08,22.5c0,1.5.23,2.87.7,4.12.46,1.25,1.13,2.33,2,3.24.87.92,1.91,1.63,3.13,2.14,1.21.51,2.57.77,4.07.77s2.86-.25,4.07-.77c1.21-.51,2.26-1.22,3.13-2.14.87-.92,1.54-2,2-3.24.46-1.24.7-2.62.7-4.12s-.23-2.83-.7-4.09c-.47-1.26-1.13-2.35-2-3.26-.87-.91-1.91-1.63-3.13-2.14-1.21-.51-2.57-.77-4.07-.77s-2.86.26-4.07.77c-1.21.51-2.26,1.22-3.13,2.14-.87.92-1.54,2-2,3.26-.47,1.26-.7,2.63-.7,4.09Z" style="fill: #3a53a4; stroke-width: 0px;"/>
  <path d="M176.04,6.57h9.54l13.54,22.14h.09V6.57h7.02v31.86h-9.18l-13.91-22.68h-.09v22.68h-7.02V6.57Z" style="fill: #3a53a4; stroke-width: 0px;"/>
  <path d="M223.2,31.27l12.38-11.12c.63-.57,1.26-1.21,1.89-1.94.63-.72.95-1.56.95-2.52,0-1.08-.39-1.93-1.17-2.54-.78-.61-1.7-.92-2.74-.92-1.26,0-2.24.39-2.95,1.17-.71.78-1.1,1.74-1.19,2.88l-6.75-.49c.09-1.65.44-3.08,1.04-4.3.6-1.21,1.39-2.23,2.38-3.04.99-.81,2.15-1.42,3.49-1.82,1.33-.4,2.78-.61,4.34-.61,1.44,0,2.79.2,4.05.61s2.35,1.01,3.29,1.8c.93.8,1.66,1.79,2.18,2.99.53,1.2.79,2.6.79,4.19,0,1.02-.11,1.94-.31,2.77-.21.83-.5,1.57-.88,2.25-.38.67-.82,1.3-1.33,1.87-.51.57-1.06,1.12-1.66,1.67l-9.68,8.33h14.13v5.94h-22.23v-7.15Z" style="fill: #3a53a4; stroke-width: 0px;"/>
  <path d="M261.72,32.04h-13.91v-5.67l13.01-19.8h7.38v19.8h4.1v5.67h-4.1v6.39h-6.48v-6.39ZM261.72,15.39h-.09l-7.06,10.98h7.16v-10.98Z" style="fill: #3a53a4; stroke-width: 0px;"/>
</svg>