<?xml version="1.0" encoding="UTF-8"?>
<svg id="Layer_1" data-name="Layer 1" xmlns="http://www.w3.org/2000/svg" viewBox="0 0 270 270">
  <defs>
    <style>
      .cls-1 {
        fill: #189dcf;
        stroke-width: 0px;
      }
    </style>
  </defs>
  <path class="cls-1" d="m22.95,78.1c0-6.05,1.01-11.53,3.04-16.44,2.03-4.91,4.86-9.09,8.49-12.55,3.63-3.45,7.94-6.1,12.92-7.96,4.98-1.85,10.43-2.78,16.34-2.78s11.35.93,16.34,2.78c4.98,1.85,9.29,4.5,12.92,7.96,3.63,3.45,6.46,7.63,8.49,12.55,2.03,4.91,3.04,10.39,3.04,16.44s-1.01,11.53-3.04,16.44c-2.03,4.91-4.86,9.09-8.49,12.55-3.63,3.45-7.94,6.1-12.92,7.96-4.98,1.85-10.43,2.78-16.34,2.78s-11.35-.93-16.34-2.78c-4.98-1.85-9.29-4.5-12.92-7.96-3.63-3.45-6.46-7.63-8.49-12.55-2.03-4.91-3.04-10.39-3.04-16.44Zm17.3,0c0,3.56.55,6.82,1.65,9.77,1.1,2.95,2.69,5.52,4.75,7.69,2.06,2.17,4.54,3.86,7.42,5.07,2.88,1.21,6.1,1.82,9.66,1.82s6.78-.6,9.66-1.82c2.88-1.21,5.36-2.9,7.42-5.07,2.06-2.17,3.65-4.73,4.75-7.69,1.1-2.95,1.65-6.21,1.65-9.77s-.55-6.73-1.65-9.72c-1.1-2.99-2.69-5.57-4.75-7.74-2.07-2.17-4.54-3.86-7.42-5.07-2.88-1.21-6.1-1.82-9.66-1.82s-6.78.61-9.66,1.82c-2.88,1.21-5.36,2.9-7.42,5.07-2.07,2.17-3.65,4.75-4.75,7.74-1.1,2.99-1.65,6.23-1.65,9.72Z"/>
  <path class="cls-1" d="m153.21,58.78c-1.35-1.71-3.19-2.97-5.5-3.79-2.31-.82-4.5-1.23-6.57-1.23-1.21,0-2.46.14-3.74.43-1.28.29-2.49.73-3.63,1.33-1.14.61-2.07,1.41-2.78,2.4-.71,1-1.07,2.21-1.07,3.63,0,2.28.85,4.02,2.56,5.23,1.71,1.21,3.86,2.24,6.46,3.1,2.6.85,5.39,1.71,8.38,2.56s5.78,2.07,8.38,3.63c2.6,1.57,4.75,3.67,6.46,6.3,1.71,2.63,2.56,6.16,2.56,10.57s-.78,7.87-2.35,11c-1.57,3.13-3.68,5.73-6.35,7.79-2.67,2.07-5.77,3.6-9.29,4.59-3.52,1-7.24,1.49-11.16,1.49-4.91,0-9.47-.75-13.67-2.24-4.2-1.5-8.11-3.91-11.75-7.26l11.85-13.03c1.71,2.28,3.86,4.04,6.46,5.29,2.6,1.25,5.29,1.87,8.06,1.87,1.35,0,2.72-.16,4.11-.48,1.39-.32,2.63-.8,3.74-1.44,1.1-.64,1.99-1.46,2.67-2.46.68-1,1.01-2.17,1.01-3.52,0-2.28-.87-4.07-2.62-5.39-1.75-1.32-3.93-2.44-6.57-3.36-2.63-.92-5.48-1.85-8.54-2.78-3.06-.92-5.91-2.17-8.54-3.74-2.63-1.56-4.82-3.63-6.57-6.19-1.75-2.56-2.62-5.94-2.62-10.14s.8-7.62,2.4-10.68c1.6-3.06,3.74-5.62,6.41-7.69,2.67-2.06,5.75-3.61,9.24-4.65,3.49-1.03,7.08-1.55,10.78-1.55,4.27,0,8.4.61,12.39,1.81,3.99,1.21,7.58,3.24,10.78,6.09l-11.43,12.49Z"/>
  <path class="cls-1" d="m202.01,40.3h13.77l32.89,75.6h-18.79l-6.51-16.02h-29.36l-6.3,16.02h-18.37l32.67-75.6Zm6.41,22l-9.18,23.49h18.47l-9.29-23.49Z"/>
  <path class="cls-1" d="m66.56,173.95c-1.64-1.99-3.65-3.52-6.03-4.59-2.39-1.07-5.14-1.6-8.28-1.6s-6.03.61-8.7,1.82c-2.67,1.21-4.98,2.9-6.94,5.07-1.96,2.17-3.49,4.75-4.59,7.74-1.1,2.99-1.65,6.23-1.65,9.72s.55,6.82,1.65,9.77c1.1,2.95,2.62,5.52,4.54,7.69,1.92,2.17,4.18,3.86,6.78,5.07,2.6,1.21,5.39,1.82,8.38,1.82,3.42,0,6.44-.71,9.08-2.14,2.63-1.42,4.81-3.42,6.51-5.98l13.88,10.36c-3.2,4.48-7.26,7.79-12.17,9.93-4.91,2.14-9.97,3.2-15.16,3.2-5.91,0-11.35-.93-16.34-2.78-4.98-1.85-9.29-4.5-12.92-7.96-3.63-3.45-6.46-7.63-8.49-12.55-2.03-4.91-3.04-10.39-3.04-16.44s1.01-11.53,3.04-16.44c2.03-4.91,4.86-9.09,8.49-12.55,3.63-3.45,7.94-6.1,12.92-7.96,4.98-1.85,10.43-2.78,16.34-2.78,2.14,0,4.36.2,6.67.59,2.31.39,4.59,1.01,6.83,1.87,2.24.85,4.39,1.99,6.46,3.42,2.06,1.42,3.91,3.17,5.55,5.23l-12.81,10.46Z"/>
  <path class="cls-1" d="m86.21,192.1c0-6.05,1.01-11.53,3.04-16.44,2.03-4.91,4.86-9.09,8.49-12.55,3.63-3.45,7.94-6.1,12.92-7.96,4.98-1.85,10.43-2.78,16.34-2.78s11.35.93,16.34,2.78c4.98,1.85,9.29,4.5,12.92,7.96,3.63,3.45,6.46,7.63,8.49,12.55,2.03,4.91,3.04,10.39,3.04,16.44s-1.01,11.53-3.04,16.44c-2.03,4.91-4.86,9.09-8.49,12.55-3.63,3.45-7.94,6.1-12.92,7.96-4.98,1.85-10.43,2.78-16.34,2.78s-11.35-.93-16.34-2.78c-4.98-1.85-9.29-4.5-12.92-7.96-3.63-3.45-6.46-7.63-8.49-12.55-2.03-4.91-3.04-10.39-3.04-16.44Zm17.3,0c0,3.56.55,6.82,1.65,9.77,1.1,2.95,2.69,5.52,4.75,7.69,2.06,2.17,4.54,3.86,7.42,5.07,2.88,1.21,6.1,1.82,9.66,1.82s6.78-.6,9.66-1.82c2.88-1.21,5.36-2.9,7.42-5.07,2.06-2.17,3.65-4.73,4.75-7.69,1.1-2.95,1.65-6.21,1.65-9.77s-.55-6.73-1.65-9.72c-1.1-2.99-2.69-5.57-4.75-7.74-2.07-2.17-4.54-3.86-7.42-5.07-2.88-1.21-6.1-1.82-9.66-1.82s-6.78.61-9.66,1.82c-2.88,1.21-5.36,2.9-7.42,5.07-2.07,2.17-3.65,4.75-4.75,7.74-1.1,2.99-1.65,6.23-1.65,9.72Z"/>
  <path class="cls-1" d="m179.11,154.3h22.64l32.14,52.53h.21v-52.53h16.66v75.6h-21.78l-32.99-53.82h-.21v53.82h-16.66v-75.6Z"/>
</svg>