<?xml version="1.0" encoding="UTF-8"?>
<svg xmlns="http://www.w3.org/2000/svg" id="Group_760" data-name="Group 760" width="461.54" height="105.99" viewBox="0 0 461.54 105.99">
  <g id="Group_758" data-name="Group 758">
    <path id="Path_960" data-name="Path 960" d="M.09,50.96,66.86,12.12,45.88,0V.04L22.94,13.3h-.01L.09,26.49h0L0,26.54l.09.05Z" fill="#199dcf"></path>
    <path id="Path_961" data-name="Path 961" d="M4.21,53.19,22.94,64.08V42.29Z" fill="#199dcf"></path>
    <path id="Path_962" data-name="Path 962" d="M43.75,80.79.23,55.51l-.14.08V79.43L0,79.48l.09.06v26.45L22.8,92.88h0Z" fill="#199dcf"></path>
    <path id="Path_963" data-name="Path 963" d="M64.22,36.96l2.57,1.49L89.61,25.17,70.92,14.38,48.03,27.7l16.15,9.32Z" fill="#199dcf"></path>
    <g id="Group_757" data-name="Group 757">
      <path id="Path_964" data-name="Path 964" d="M76.33,44l15.33,8.92v-.1l-.03.01Z" fill="#199dcf"></path>
      <path id="Path_965" data-name="Path 965" d="M68.71,44.2V92.51l22.95,13.25V57.55Z" fill="#199dcf"></path>
    </g>
    <path id="Path_966" data-name="Path 966" d="M70.77,40.76l5.51,3.21,15.38,8.88V28.61Z" fill="#199dcf"></path>
  </g>
  <path id="Path_967" data-name="Path 967" d="M149.92,29.66H162.3l19.72,46.67H168.25l-3.38-8.27H147l-3.31,8.27h-13.5l19.72-46.67Zm11.25,28.4-5.16-13.17-5.23,13.17Z"></path>
  <path id="Path_968" data-name="Path 968" d="M186.53,29.99h12.84V65.07h22.44V76.32H186.53Z"></path>
  <path id="Path_969" data-name="Path 969" d="M230,41.25H216.1V30h40.64V41.25h-13.9V76.33H230Z"></path>
  <path id="Path_970" data-name="Path 970" d="M262.63,29.99h12.91V76.32H262.63Z"></path>
  <path id="Path_971" data-name="Path 971" d="M284.01,29.99h11.98l19.06,24.49V29.99h12.71V76.32H316.51L296.72,50.9V76.32H284.01Z"></path>
  <path id="Path_972" data-name="Path 972" d="M336.24,29.99h12.91V76.32H336.24Z"></path>
  <path id="Path_973" data-name="Path 973" d="M368.94,41.25h-13.9V30h40.64V41.25h-13.9V76.33H368.94Z"></path>
  <path id="Path_974" data-name="Path 974" d="M416.68,58.98,399.07,29.99H413.7l9.53,16.88,9.6-16.88h14.36L429.58,58.78V76.32H416.67V58.98Z"></path>
  <g id="Group_759" data-name="Group 759">
    <path id="Path_975" data-name="Path 975" d="M457.99,34.89a1.687,1.687,0,0,0,.73-.44,1.487,1.487,0,0,0-.16-2.12,2.147,2.147,0,0,0-1.33-.4h-2.06a.122.122,0,0,0-.12.12v4.61a.122.122,0,0,0,.12.12h.68a.122.122,0,0,0,.12-.12V35.04h.99l1.29,1.69a.223.223,0,0,0,.1.05h.84s.09-.03.11-.07a.123.123,0,0,0-.01-.13l-1.32-1.71Zm.15-1.4a.572.572,0,0,1-.25.51,1.2,1.2,0,0,1-.72.19h-1.19V32.8h1.23a1.1,1.1,0,0,1,.7.19.6.6,0,0,1,.23.5Z"></path>
    <path id="Path_976" data-name="Path 976" d="M461.2,32.69a4.789,4.789,0,0,0-.98-1.47,4.492,4.492,0,0,0-1.46-.99,4.583,4.583,0,0,0-1.82-.36,4.421,4.421,0,0,0-1.82.37,4.892,4.892,0,0,0-1.48,1,4.563,4.563,0,0,0-.98,1.47,4.63,4.63,0,0,0,0,3.58,4.617,4.617,0,0,0,.98,1.47,4.492,4.492,0,0,0,1.46.99,4.569,4.569,0,0,0,1.81.36,4.455,4.455,0,0,0,1.82-.37,4.726,4.726,0,0,0,1.47-1,4.563,4.563,0,0,0,.98-1.47,4.63,4.63,0,0,0,0-3.58Zm-.3,1.79a4.075,4.075,0,0,1-.3,1.55,3.805,3.805,0,0,1-.84,1.27,3.906,3.906,0,0,1-1.27.86,3.971,3.971,0,0,1-1.57.32,4.02,4.02,0,0,1-1.56-.31,3.922,3.922,0,0,1-2.08-2.13,3.987,3.987,0,0,1-.3-1.54,4.075,4.075,0,0,1,.3-1.55,3.909,3.909,0,0,1,.84-1.27,4.085,4.085,0,0,1,1.26-.86,3.913,3.913,0,0,1,1.58-.32,4.034,4.034,0,0,1,1.57.31,3.922,3.922,0,0,1,2.08,2.13,3.987,3.987,0,0,1,.3,1.54Z"></path>
  </g>
</svg>
