<svg width="2795" height="560" viewBox="0 0 2795 560" fill="none" xmlns="http://www.w3.org/2000/svg">
<path d="M54.88 458V220H14.56V178H54.88V128.72C54.88 113.413 57.4933 101.093 62.72 91.76C67.9467 82.0533 75.9733 74.96 86.8 70.48C98 65.6266 112.373 63.2 129.92 63.2C135.893 63.2 141.493 63.5733 146.72 64.32C152.32 64.6933 156.987 65.2533 160.72 66L159.6 110.8C149.52 108.933 140.56 108 132.72 108C122.64 108 115.36 109.493 110.88 112.48C106.773 115.093 104.72 120.88 104.72 129.84V178H161.84V220H104.72V458H54.88ZM204.96 125.36V66H255.36V125.36H204.96ZM204.96 458V178H255.36V458H204.96ZM204.96 458V415.44H255.36V458H204.96ZM204.96 220.56V178H255.36V220.56H204.96ZM401.218 458L296.498 178H350.258L400.098 323.04L406.818 343.2C409.805 352.16 412.978 362.427 416.338 374C420.071 385.2 423.991 397.707 428.098 411.52C432.205 398.08 437.058 382.773 442.658 365.6C444.898 358.133 447.138 350.853 449.378 343.76C451.991 336.667 454.418 329.76 456.658 323.04L507.058 178H559.698L454.978 458H401.218ZM714.039 464.72C692.386 464.72 673.159 461.36 656.359 454.64C639.559 447.92 625.186 437.653 613.239 423.84C601.666 410.773 593.079 395.467 587.479 377.92C581.879 360 579.079 339.84 579.079 317.44C579.079 296.533 582.066 277.307 588.039 259.76C594.013 241.84 602.786 226.347 614.359 213.28C626.679 199.467 641.239 189.013 658.039 181.92C674.839 174.827 693.319 171.28 713.479 171.28C736.253 171.28 757.346 176.133 776.759 185.84C796.173 195.173 811.479 208.8 822.679 226.72C831.266 240.16 837.613 256.4 841.719 275.44C845.826 294.107 847.319 313.333 846.199 333.12H633.959C634.706 364.107 641.613 387.067 654.679 402C667.746 416.933 687.346 424.4 713.479 424.4C737.373 424.4 755.853 419.36 768.919 409.28C781.986 398.827 790.199 382.96 793.559 361.68L842.279 365.6C836.306 398.08 822.306 422.72 800.279 439.52C778.626 456.32 749.879 464.72 714.039 464.72ZM634.519 293.92L627.239 292.24H798.039L794.679 293.92C794.679 286.08 793.186 277.307 790.199 267.6C787.586 257.52 784.039 249.12 779.559 242.4C772.466 231.947 763.506 224.293 752.679 219.44C742.226 214.587 729.346 212.16 714.039 212.16C698.733 212.16 685.293 214.96 673.719 220.56C662.146 225.787 653.559 233.067 647.959 242.4C639.746 255.84 635.266 271.707 634.519 290V293.92ZM1026.41 464.72C997.663 464.72 972.65 458.933 951.37 447.36C930.463 435.413 914.41 418.427 903.21 396.4C892.01 374.373 886.41 348.24 886.41 318C886.41 289.627 892.01 264.427 903.21 242.4C914.783 220 931.023 202.64 951.93 190.32C973.21 177.627 998.037 171.28 1026.41 171.28C1054.41 171.28 1078.86 177.627 1099.77 190.32C1121.05 202.64 1137.29 220 1148.49 242.4C1160.06 264.8 1165.85 290 1165.85 318C1165.85 347.12 1160.06 372.88 1148.49 395.28C1136.92 417.307 1120.49 434.48 1099.21 446.8C1078.3 458.747 1054.04 464.72 1026.41 464.72ZM1026.41 424.96C1054.04 424.96 1074.76 417.12 1088.57 401.44C1096.41 392.48 1102.2 381.093 1105.93 367.28C1109.66 353.093 1111.53 336.667 1111.53 318C1111.53 279.173 1103.69 251.173 1088.01 234C1073.82 218.693 1053.29 211.04 1026.41 211.04C1012.6 211.04 1000.65 212.907 990.57 216.64C980.49 220 972.09 225.227 965.37 232.32C956.783 241.28 950.437 253.04 946.33 267.6C942.597 281.787 940.73 298.587 940.73 318C940.73 337.413 942.597 354.4 946.33 368.96C950.437 383.147 956.783 394.72 965.37 403.68C978.81 417.867 999.157 424.96 1026.41 424.96ZM1223.13 458V178H1273.53V245.2L1267.93 236.24C1273.91 214.96 1284.36 198.907 1299.29 188.08C1314.6 176.88 1334.76 171.28 1359.77 171.28C1378.07 171.28 1393.93 173.893 1407.37 179.12C1421.19 183.973 1433.13 191.813 1443.21 202.64C1452.55 212.72 1458.52 225.04 1461.13 239.6C1463.75 253.787 1465.05 271.147 1465.05 291.68V458H1412.97V294.48C1412.97 294.107 1412.97 293.733 1412.97 293.36C1412.97 292.987 1412.97 292.613 1412.97 292.24C1412.97 276.187 1412.04 263.493 1410.17 254.16C1408.31 244.827 1403.64 236.613 1396.17 229.52C1389.08 222.427 1381.61 217.947 1373.77 216.08C1365.93 214.213 1356.79 213.28 1346.33 213.28C1328.04 213.28 1311.24 219.627 1295.93 232.32C1281 244.64 1273.53 268.347 1273.53 303.44V458H1223.13ZM1654.66 464.72C1633.01 464.72 1613.78 461.36 1596.98 454.64C1580.18 447.92 1565.81 437.653 1553.86 423.84C1542.29 410.773 1533.7 395.467 1528.1 377.92C1522.5 360 1519.7 339.84 1519.7 317.44C1519.7 296.533 1522.69 277.307 1528.66 259.76C1534.64 241.84 1543.41 226.347 1554.98 213.28C1567.3 199.467 1581.86 189.013 1598.66 181.92C1615.46 174.827 1633.94 171.28 1654.1 171.28C1676.88 171.28 1697.97 176.133 1717.38 185.84C1736.8 195.173 1752.1 208.8 1763.3 226.72C1771.89 240.16 1778.24 256.4 1782.34 275.44C1786.45 294.107 1787.94 313.333 1786.82 333.12H1574.58C1575.33 364.107 1582.24 387.067 1595.3 402C1608.37 416.933 1627.97 424.4 1654.1 424.4C1678 424.4 1696.48 419.36 1709.54 409.28C1722.61 398.827 1730.82 382.96 1734.18 361.68L1782.9 365.6C1776.93 398.08 1762.93 422.72 1740.9 439.52C1719.25 456.32 1690.5 464.72 1654.66 464.72ZM1575.14 293.92L1567.86 292.24H1738.66L1735.3 293.92C1735.3 286.08 1733.81 277.307 1730.82 267.6C1728.21 257.52 1724.66 249.12 1720.18 242.4C1713.09 231.947 1704.13 224.293 1693.3 219.44C1682.85 214.587 1669.97 212.16 1654.66 212.16C1639.36 212.16 1625.92 214.96 1614.34 220.56C1602.77 225.787 1594.18 233.067 1588.58 242.4C1580.37 255.84 1575.89 271.707 1575.14 290V293.92ZM1856.83 458V220H1816.51V178H1856.83V128.72C1856.83 113.413 1859.45 101.093 1864.67 91.76C1869.9 82.0533 1877.93 74.96 1888.75 70.48C1899.95 65.6266 1914.33 63.2 1931.87 63.2C1937.85 63.2 1943.45 63.5733 1948.67 64.32C1954.27 64.6933 1958.94 65.2533 1962.67 66L1961.55 110.8C1951.47 108.933 1942.51 108 1934.67 108C1924.59 108 1917.31 109.493 1912.83 112.48C1908.73 115.093 1906.67 120.88 1906.67 129.84V178H1963.79V220H1906.67V458H1856.83ZM2124.54 464.72C2095.79 464.72 2070.78 458.933 2049.5 447.36C2028.59 435.413 2012.54 418.427 2001.33 396.4C1990.14 374.373 1984.54 348.24 1984.54 318C1984.54 289.627 1990.14 264.427 2001.33 242.4C2012.91 220 2029.15 202.64 2050.06 190.32C2071.34 177.627 2096.16 171.28 2124.54 171.28C2152.54 171.28 2176.99 177.627 2197.9 190.32C2219.18 202.64 2235.42 220 2246.62 242.4C2258.19 264.8 2263.98 290 2263.98 318C2263.98 347.12 2258.19 372.88 2246.62 395.28C2235.04 417.307 2218.62 434.48 2197.34 446.8C2176.43 458.747 2152.16 464.72 2124.54 464.72ZM2124.54 424.96C2152.16 424.96 2172.88 417.12 2186.7 401.44C2194.54 392.48 2200.32 381.093 2204.06 367.28C2207.79 353.093 2209.66 336.667 2209.66 318C2209.66 279.173 2201.82 251.173 2186.14 234C2171.95 218.693 2151.42 211.04 2124.54 211.04C2110.72 211.04 2098.78 212.907 2088.7 216.64C2078.62 220 2070.22 225.227 2063.5 232.32C2054.91 241.28 2048.56 253.04 2044.46 267.6C2040.72 281.787 2038.86 298.587 2038.86 318C2038.86 337.413 2040.72 354.4 2044.46 368.96C2048.56 383.147 2054.91 394.72 2063.5 403.68C2076.94 417.867 2097.28 424.96 2124.54 424.96ZM2423.74 464.72C2405.44 464.72 2389.58 462.293 2376.14 457.44C2362.7 452.213 2350.94 444.187 2340.86 433.36C2331.15 423.28 2324.99 411.147 2322.38 396.96C2319.76 382.773 2318.46 365.6 2318.46 345.44V178H2370.54V342.64C2370.54 343.013 2370.54 343.387 2370.54 343.76C2370.54 344.133 2370.54 344.507 2370.54 344.88C2370.54 360.56 2371.47 373.067 2373.34 382.4C2375.2 391.36 2379.68 399.387 2386.78 406.48C2393.87 413.573 2401.34 418.053 2409.18 419.92C2417.39 421.787 2426.91 422.72 2437.74 422.72C2456.78 422.72 2473.58 417.12 2488.14 405.92C2502.7 394.347 2509.98 370.827 2509.98 335.36V178H2560.38V458H2509.98V391.92L2515.58 400.32C2509.98 420.853 2498.96 436.72 2482.54 447.92C2466.48 459.12 2446.88 464.72 2423.74 464.72ZM2634.07 458V178H2684.47V251.92L2682.79 239.6C2682.42 229.147 2685.96 219.067 2693.43 209.36C2701.27 199.28 2711.91 190.88 2725.35 184.16C2739.16 177.067 2754.47 172.96 2771.27 171.84C2773.14 171.467 2775.38 171.28 2777.99 171.28C2780.98 171.28 2783.78 171.28 2786.39 171.28C2787.14 171.28 2787.7 171.28 2788.07 171.28C2788.82 171.28 2789.56 171.28 2790.31 171.28L2789.19 218.88C2786.95 218.507 2782.66 218.32 2776.31 218.32C2756.52 218.32 2740.1 221.12 2727.03 226.72C2713.96 232.32 2703.51 242.96 2695.67 258.64C2688.2 274.32 2684.47 296.533 2684.47 325.28V458H2634.07Z" fill="black"/>
</svg>
